<?xml version="1.0" encoding="iso-8859-1"?>
<!-- Generator: Adobe Illustrator 19.0.0, SVG Export Plug-In . SVG Version: 6.00 Build 0)  -->
<svg version="1.1" id="Capa_1" xmlns="http://www.w3.org/2000/svg" xmlns:xlink="http://www.w3.org/1999/xlink" x="0px" y="0px"
	 viewBox="0 0 512.001 512.001" style="enable-background:new 0 0 512.001 512.001;" xml:space="preserve">
<path style="fill:#DCD7D8;" d="M389.785,7.544c-22.221,0-40.236,18.015-40.236,40.236v56.33h80.472V47.78
	C430.021,25.559,412.007,7.544,389.785,7.544z"/>
<path style="fill:#EDEBEC;" d="M349.55,7.544H116.182c-35.554,0-64.377,28.823-64.377,64.377V442.09H349.55V47.78
	c0-22.221,18.015-40.236,40.236-40.236H349.55z"/>
<path style="fill:#DCD7D8;" d="M140.324,7.544h-24.141c-35.554,0-64.377,28.823-64.377,64.377V442.09h24.141V71.921
	C75.946,36.367,104.769,7.544,140.324,7.544z"/>
<path style="fill:#55D3FA;" d="M460.198,414.763v-35.877l-30.552-6.111c-1.458-4.675-3.344-9.159-5.586-13.427l17.297-25.946
	l-25.369-25.369l-25.946,17.297c-4.268-2.242-8.751-4.128-13.427-5.586l-6.111-30.552h-35.877l-6.111,30.552
	c-4.675,1.458-9.159,3.344-13.427,5.586l-25.946-17.297l-25.369,25.369l17.297,25.946c-2.242,4.268-4.128,8.751-5.586,13.427
	l-30.552,6.111v35.877l30.552,6.111c1.458,4.675,3.344,9.159,5.586,13.427l-17.297,25.946l25.369,25.369l25.946-17.297
	c4.268,2.242,8.751,4.128,13.427,5.586l6.111,30.552h35.877l6.111-30.552c4.675-1.458,9.159-3.344,13.427-5.586l25.946,17.297
	l25.369-25.369l-17.297-25.946c2.242-4.268,4.128-8.751,5.586-13.427L460.198,414.763z M352.567,432.702
	c-19.814,0-35.877-16.063-35.877-35.877s16.063-35.877,35.877-35.877c19.814,0,35.877,16.063,35.877,35.877
	S372.381,432.702,352.567,432.702z"/>
<path style="fill:#56C4F0;" d="M352.567,332.448c-35.554,0-64.377,28.823-64.377,64.377s28.823,64.377,64.377,64.377
	s64.377-28.823,64.377-64.377S388.122,332.448,352.567,332.448z M352.567,432.702c-19.814,0-35.877-16.062-35.877-35.877
	c0-19.815,16.063-35.877,35.877-35.877c19.814,0,35.877,16.062,35.877,35.877C388.445,416.64,372.381,432.702,352.567,432.702z"/>
<path d="M204.701,88.519H100.088c-4.166,0-7.544,3.377-7.544,7.544c0,4.167,3.378,7.544,7.544,7.544h104.613
	c4.166,0,7.544-3.377,7.544-7.544C212.245,91.895,208.867,88.519,204.701,88.519z"/>
<path d="M100.088,176.031h56.33c4.166,0,7.544-3.377,7.544-7.544c0-4.167-3.378-7.544-7.544-7.544h-56.33
	c-4.166,0-7.544,3.377-7.544,7.544C92.544,172.655,95.922,176.031,100.088,176.031z"/>
<path d="M100.088,248.456h104.613c4.166,0,7.544-3.377,7.544-7.544c0-4.167-3.378-7.544-7.544-7.544H100.088
	c-4.166,0-7.544,3.377-7.544,7.544C92.544,245.079,95.922,248.456,100.088,248.456z"/>
<path d="M293.22,103.607c4.166,0,7.544-3.377,7.544-7.544c0-4.167-3.378-7.544-7.544-7.544h-56.33c-4.166,0-7.544,3.377-7.544,7.544
	c0,4.167,3.378,7.544,7.544,7.544H293.22z"/>
<path d="M181.062,168.487c0,4.167,3.378,7.544,7.544,7.544H293.22c4.166,0,7.544-3.377,7.544-7.544c0-4.167-3.378-7.544-7.544-7.544
	H188.607C184.44,160.943,181.062,164.32,181.062,168.487z"/>
<path d="M300.764,240.912c0-4.167-3.378-7.544-7.544-7.544h-56.33c-4.166,0-7.544,3.377-7.544,7.544
	c0,4.167,3.378,7.544,7.544,7.544h56.33C297.386,248.456,300.764,245.079,300.764,240.912z"/>
<path d="M100.088,320.88h104.613c4.166,0,7.544-3.377,7.544-7.544s-3.378-7.544-7.544-7.544H100.088
	c-4.166,0-7.544,3.377-7.544,7.544S95.922,320.88,100.088,320.88z"/>
<path d="M236.89,305.792c-4.166,0-7.544,3.377-7.544,7.544s3.378,7.544,7.544,7.544h16.094c4.166,0,7.544-3.377,7.544-7.544
	s-3.378-7.544-7.544-7.544H236.89z"/>
<path d="M461.678,371.49l-26.299-5.26c-0.789-2.124-1.667-4.233-2.629-6.313l14.885-22.328c1.995-2.993,1.6-6.977-0.943-9.52
	l-25.369-25.369c-2.543-2.542-6.527-2.936-9.519-0.943l-22.328,14.885c-2.081-0.963-4.19-1.841-6.314-2.629l-5.259-26.298
	c-0.705-3.527-3.801-6.065-7.397-6.065h-13.413V111.654h72.927c4.166,0,7.544-3.377,7.544-7.544V47.78
	c0-26.345-21.435-47.78-47.78-47.78H116.182C76.525,0,44.261,32.264,44.261,71.921v83.997c0,4.167,3.378,7.544,7.544,7.544
	s7.544-3.377,7.544-7.544V71.921c0-31.338,25.495-56.833,56.833-56.833H354.97c-8.036,8.553-12.965,20.057-12.965,32.692v233.87
	h-7.376c-3.596,0-6.692,2.538-7.397,6.065l-5.259,26.298c-2.124,0.789-4.233,1.667-6.314,2.629l-22.328-14.885
	c-2.992-1.995-6.976-1.599-9.519,0.943l-25.369,25.369c-2.543,2.543-2.937,6.527-0.943,9.52l14.885,22.328
	c-0.963,2.08-1.841,4.189-2.629,6.313l-26.299,5.26c-3.526,0.705-6.065,3.801-6.065,7.397v35.876c0,3.596,2.538,6.692,6.065,7.397
	l26.298,5.26c0.79,2.124,1.668,4.234,2.629,6.313l-0.542,0.814H59.349v-242.42c0-4.167-3.378-7.544-7.544-7.544
	s-7.544,3.377-7.544,7.544V442.09c0,4.167,3.378,7.544,7.544,7.544h209.98l-4.285,6.429c-1.995,2.993-1.6,6.977,0.943,9.52
	l25.369,25.369c2.543,2.542,6.526,2.936,9.519,0.943l22.328-14.885c2.081,0.963,4.19,1.841,6.314,2.629l5.259,26.298
	c0.705,3.527,3.801,6.065,7.397,6.065h35.877c3.596,0,6.692-2.538,7.397-6.065l5.259-26.298c2.124-0.789,4.233-1.667,6.314-2.629
	l22.328,14.885c2.993,1.997,6.977,1.601,9.519-0.943l25.369-25.369c2.543-2.543,2.937-6.527,0.943-9.52l-14.885-22.328
	c0.963-2.079,1.841-4.189,2.629-6.313l26.298-5.26c3.526-0.705,6.065-3.801,6.065-7.397v-35.876
	C467.742,375.291,465.204,372.195,461.678,371.49z M389.785,15.088c18.026,0,32.692,14.665,32.692,32.692v48.786h-65.383V47.78
	C357.094,29.753,371.76,15.088,389.785,15.088z M452.654,408.579l-24.487,4.898c-2.706,0.541-4.902,2.518-5.723,5.152
	c-1.287,4.127-2.99,8.219-5.062,12.163c-1.285,2.444-1.131,5.396,0.401,7.693l13.867,20.801l-16.622,16.621l-20.801-13.866
	c-2.297-1.532-5.249-1.686-7.693-0.401c-3.95,2.075-8.042,3.778-12.162,5.062c-2.635,0.821-4.612,3.016-5.154,5.723l-4.897,24.487
	h-23.508l-4.897-24.487c-0.541-2.707-2.518-4.902-5.154-5.723c-4.12-1.284-8.212-2.987-12.162-5.062
	c-2.445-1.285-5.396-1.132-7.693,0.401l-20.801,13.866l-16.622-16.621l13.867-20.801c1.532-2.297,1.686-5.25,0.401-7.693
	c-2.072-3.944-3.775-8.036-5.062-12.163c-0.821-2.634-3.017-4.611-5.723-5.152l-24.487-4.898v-23.507l24.487-4.898
	c2.706-0.541,4.902-2.518,5.723-5.152c1.286-4.125,2.989-8.217,5.062-12.163c1.285-2.445,1.131-5.396-0.401-7.693l-13.867-20.801
	l16.622-16.621l20.801,13.866c2.297,1.533,5.249,1.686,7.693,0.401c3.95-2.075,8.042-3.778,12.162-5.062
	c2.635-0.821,4.612-3.016,5.154-5.723l4.897-24.488h23.508l4.897,24.487c0.541,2.707,2.518,4.902,5.154,5.723
	c4.12,1.284,8.212,2.987,12.162,5.062c2.444,1.283,5.396,1.131,7.693-0.401l20.801-13.866l16.622,16.621l-13.867,20.801
	c-1.532,2.297-1.686,5.249-0.401,7.693c2.073,3.946,3.776,8.038,5.062,12.163c0.821,2.634,3.017,4.611,5.723,5.152l24.487,4.898
	V408.579z"/>
<path d="M352.567,353.404c-23.942,0-43.421,19.478-43.421,43.421s19.478,43.421,43.421,43.421s43.421-19.478,43.421-43.421
	S376.51,353.404,352.567,353.404z M352.567,425.158c-15.623,0-28.333-12.71-28.333-28.333c0-15.623,12.709-28.333,28.333-28.333
	s28.333,12.71,28.333,28.333C380.9,412.448,368.19,425.158,352.567,425.158z"/>
<g>
</g>
<g>
</g>
<g>
</g>
<g>
</g>
<g>
</g>
<g>
</g>
<g>
</g>
<g>
</g>
<g>
</g>
<g>
</g>
<g>
</g>
<g>
</g>
<g>
</g>
<g>
</g>
<g>
</g>
</svg>
